:FULLY-SPECIFIED
:FORCE-ALL-JOINTS-BE-3DOF
:DEGREES
170
root 6.46786 16.0534 -25.6401 4.04167 29.6366 1.52227
lfemur -25.6211 31.561 -16.5998
ltibia 41.2381 -0 0
lfoot -7.87329 10.4336 0.0714735
ltoes 14.6333 -0 0
rfemur -19.899 -2.57184 -5.64037
rtibia 59.528 -0 0
rfoot 7.37619 -26.1632 -0.389261
rtoes 44.2105 -0 0
lowerback 1.15856 -4.958 -1.26096
upperback -0.0374915 -6.64365 -2.45473
thorax -0.83531 -3.31827 -1.68135
lowerneck -9.45147 -7.38412 -1.62313
upperneck 1.7832 -9.90589 5.2782
head 2.5946 -4.77262 1.45381
lclavicle -9.86966e-14 3.18055e-15 0
lhumerus -50.0989 -41.5441 115.976
lradius 52.4667 -0 0
lwrist 15.5927 0 0
lhand 37.5191 28.881 -0.0423587
lfingers 7.12502 -0 0
lthumb 60.3204 42.4042 -0.0207194
rclavicle -9.86966e-14 3.18055e-15 0
rhumerus -48.6189 -13.0341 -79.2556
rradius 90.0285 -0 0
rwrist -4.8397 0 0
rhand -41.5119 -52.0866 0.761588
rfingers 7.12502 -0 0
rthumb -14.4852 -81.1994 0.870328
171
root 6.38369 16.02 -25.6022 4.347 29.1019 1.64912
lfemur -24.5582 30.7204 -15.4666
ltibia 40.158 -0 0
lfoot -8.04417 9.54581 0.164695
ltoes 16.1451 -0 0
rfemur -18.8579 -1.94355 -6.17535
rtibia 57.7684 -0 0
rfoot 5.92958 -26.195 -0.82282
rtoes 45.9911 -0 0
lowerback 0.733755 -4.85478 -1.11827
upperback -0.130051 -6.49977 -2.61607
thorax -0.725852 -3.248 -1.95943
lowerneck -9.51898 -7.29969 -1.49433
upperneck 1.8913 -9.81149 5.24698
head 2.63631 -4.72219 1.4273
lclavicle -9.86966e-14 3.18055e-15 0
lhumerus -50.618 -41.6861 116.381
lradius 52.6544 -0 0
lwrist 15.8852 0 0
lhand 37.9285 29.2928 -0.0827993
lfingers 7.12502 -0 0
lthumb 60.6802 42.5046 -0.0405306
rclavicle -9.86966e-14 3.18055e-15 0
rhumerus -48.8467 -10.901 -78.761
rradius 91.1086 -0 0
rwrist -5.28284 0 0
rhand -39.3387 -50.7733 1.6517
rfingers 7.12502 -0 0
rthumb -12.4572 -79.5925 1.88742
172
root 6.3066 15.9909 -25.5675 4.64792 28.4205 1.79266
lfemur -23.2907 29.6485 -14.1817
ltibia 38.8798 -0 0
lfoot -8.30517 8.4453 0.274343
ltoes 17.8527 -0 0
rfemur -17.935 -1.45812 -6.68496
rtibia 56.0361 -0 0
rfoot 4.31976 -25.9483 -1.28438
rtoes 47.6791 -0 0
lowerback 0.307183 -4.73968 -0.988905
upperback -0.216994 -6.34041 -2.79944
thorax -0.60822 -3.16994 -2.25263
lowerneck -9.61011 -7.17481 -1.34181
upperneck 2.00712 -9.66599 5.2095
head 2.68238 -4.64584 1.39741
lclavicle -9.86966e-14 3.18055e-15 0
lhumerus -51.1259 -41.8132 116.715
lradius 52.8396 -0 0
lwrist 16.1894 0 0
lhand 38.3305 29.6809 -0.121046
lfingers 7.12502 -0 0
lthumb 61.0321 42.5769 -0.0591124
rclavicle -9.86966e-14 3.18055e-15 0
rhumerus -49.1152 -8.44204 -78.1482
rradius 92.3811 -0 0
rwrist -5.80942 0 0
rhand -36.7553 -49.1827 2.62333
rfingers 7.12502 -0 0
rthumb -10.0336 -77.6579 2.99778
173
root 6.23581 15.9655 -25.5358 4.94073 27.6068 1.94892
lfemur -21.8628 28.3569 -12.7868
ltibia 37.4259 -0 0
lfoot -8.64973 7.15364 0.394501
ltoes 19.7305 -0 0
rfemur -17.1281 -1.11186 -7.17112
rtibia 54.3431 -0 0
rfoot 2.56633 -25.4387 -1.75629
rtoes 49.267 -0 0
lowerback -0.117681 -4.61443 -0.873227
upperback -0.298173 -6.16781 -3.00204
thorax -0.483953 -3.08506 -2.55767
lowerneck -9.7224 -7.01283 -1.16845
upperneck 2.12918 -9.47373 5.16663
head 2.73215 -4.54578 1.36464
lclavicle -9.86966e-14 3.18055e-15 0
lhumerus -51.6189 -41.9258 116.979
lradius 53.0211 -0 0
lwrist 16.5024 0 0
lhand 38.7224 30.0436 -0.156774
lfingers 7.12502 -0 0
lthumb 61.3738 42.6224 -0.0761634
rclavicle -9.86966e-14 3.18055e-15 0
rhumerus -49.4062 -5.69536 -77.4356
rradius 93.824 -0 0
rwrist -6.4101 0 0
rhand -33.7953 -47.3262 3.62714
rfingers 7.12502 -0 0
rthumb -7.24103 -75.411 4.14516
174
root 6.17054 15.9434 -25.507 5.22199 26.6753 2.11433
lfemur -20.3166 26.8588 -11.3222
ltibia 35.8186 -0 0
lfoot -9.07115 5.6924 0.518938
ltoes 21.7528 -0 0
rfemur -16.4354 -0.900932 -7.63474
rtibia 52.7011 -0 0
rfoot 0.689064 -24.6831 -2.22024
rtoes 50.7475 -0 0
lowerback -0.537384 -4.48077 -0.771539
upperback -0.373421 -5.98422 -3.22104
thorax -0.354572 -2.99435 -2.87125
lowerneck -9.85341 -6.81711 -0.977136
upperneck 2.25597 -9.23899 5.11927
head 2.78496 -4.42422 1.32945
lclavicle -9.86966e-14 3.18055e-15 0
lhumerus -52.0932 -42.0246 117.176
lradius 53.1975 -0 0
lwrist 16.8209 0 0
lhand 39.1016 30.3796 -0.189614
lfingers 7.12502 -0 0
lthumb 61.7031 42.6421 -0.0914061
rclavicle -9.86966e-14 3.18055e-15 0
rhumerus -49.7025 -2.69932 -76.6396
rradius 95.4153 -0 0
rwrist -7.07552 0 0
rhand -30.4937 -45.2191 4.61301
rfingers 7.12502 -0 0
rthumb -4.10887 -72.871 5.27233
175
root 6.11 15.9239 -25.4809 5.48861 25.6404 2.28575
lfemur -18.6907 25.1698 -9.82448
ltibia 34.0805 -0 0
lfoot -9.56244 4.08321 0.641383
ltoes 23.894 -0 0
rfemur -15.8553 -0.821388 -8.07575
rtibia 51.122 -0 0
rfoot -1.29164 -23.6992 -2.65799
rtoes 52.1131 -0 0
lowerback -0.948489 -4.34045 -0.6841
upperback -0.44255 -5.79185 -3.45362
thorax -0.221581 -2.89882 -3.19011
lowerneck -10.0007 -6.59101 -0.77078
upperneck 2.38601 -8.9661 5.06825
head 2.84014 -4.28337 1.29236
lclavicle -9.86966e-14 3.18055e-15 0
lhumerus -52.5451 -42.11 117.306
lradius 53.3675 -0 0
lwrist 17.1419 0 0
lhand 39.4655 30.6873 -0.219163
lfingers 7.12502 -0 0
lthumb 62.0177 42.6374 -0.104591
rclavicle -9.86966e-14 3.18055e-15 0
rhumerus -49.9887 0.507334 -75.7738
rradius 97.1329 -0 0
rwrist -7.79636 0 0
rhand -26.889 -42.8818 5.53191
rfingers 7.12502 -0 0
rthumb -0.670912 -70.0624 6.32309
176
root 6.05341 15.9065 -25.4572 5.73784 24.5167 2.46047
lfemur -17.0196 23.3078 -8.32647
ltibia 32.2338 -0 0
lfoot -10.1163 2.34781 0.755762
ltoes 26.1285 -0 0
rfemur -15.3865 -0.869168 -8.49319
rtibia 49.6176 -0 0
rfoot -3.35445 -22.5065 -3.05203
rtoes 53.3564 -0 0
lowerback -1.34757 -4.19525 -0.61113
upperback -0.505344 -5.59291 -3.69694
thorax -0.0864606 -2.79953 -3.51097
lowerneck -10.1617 -6.33791 -0.552266
upperneck 2.51782 -8.65938 5.01442
head 2.89704 -4.12545 1.25382
lclavicle -9.86966e-14 3.18055e-15 0
lhumerus -52.971 -42.1825 117.37
lradius 53.5299 -0 0
lwrist 17.4623 0 0
lhand 39.8114 30.9651 -0.244991
lfingers 7.12502 -0 0
lthumb 62.3154 42.6094 -0.115501
rclavicle -9.86966e-14 3.18055e-15 0
rhumerus -50.2514 3.8854 -74.8491
rradius 98.955 -0 0
rwrist -8.56327 0 0
rhand -23.0239 -40.3407 6.33782
rfingers 7.12502 -0 0
rthumb 3.03326 -67.0166 7.24456
177
root 5.99999 15.8907 -25.436 5.96724 23.3185 2.63623
lfemur -15.3326 21.2932 -6.85616
ltibia 30.3009 -0 0
lfoot -10.7251 0.508065 0.856431
ltoes 28.4307 -0 0
rfemur -15.0278 -1.0401 -8.88527
rtibia 48.1998 -0 0
rfoot -5.4769 -21.1253 -3.38622
rtoes 54.47 -0 0
lowerback -1.73123 -4.04693 -0.552799
upperback -0.561551 -5.3896 -3.94818
thorax 0.0493294 -2.69755 -3.83058
lowerneck -10.3342 -6.06123 -0.324456
upperneck 2.64994 -8.32315 4.95857
head 2.955 -3.95268 1.21431
lclavicle -9.86966e-14 3.18055e-15 0
lhumerus -53.3675 -42.2423 117.372
lradius 53.6834 -0 0
lwrist 17.7788 0 0
lhand 40.1367 31.2117 -0.266648
lfingers 7.12502 -0 0
lthumb 62.594 42.5593 -0.123953
rclavicle -9.86966e-14 3.18055e-15 0
rhumerus -50.4789 7.39522 -73.8741
rradius 100.86 -0 0
rwrist -9.36691 0 0
rhand -18.9461 -37.6293 6.98991
rfingers 7.12502 -0 0
rthumb 6.95734 -63.7728 7.98964
